# xmcd
#
# Track frame offsets:
#	150
#	11610
#	21530
#	31670
#	41389
#	53331
#	65131
#	78426
#	89306
#	101599
#	116939
#	129649
#
# Disc length: 1872 seconds
#
# Revision: 1
# Processed by: cddbd v1.5.2PL0 Copyright (c) Steve Scherf et al.
# Submitted via: EZCDAudioConverter 2.8.0.1
#
DISCID=97074e0c
DTITLE=Slim Harpo - Shake Your Hips
DYEAR=19
DGENRE=Blues
TTITLE0=Shake Your Hips
TTITLE1=Midnight Blues
TTITLE2=Harpo's Blues
TTITLE3=Buzzin'
TTITLE4=My Little Queen Bee
TTITLE5=I Love The Life (I'm Livin')
TTITLE6=Baby  Scratch My Back
TTITLE7=I'm Gonna Miss You (Like The Devil)
TTITLE8=Rainin' In My Heart
TTITLE9=Wonderin' Blues
TTITLE10=We're Two Of A Kind
TTITLE11=I Need Money
EXTD=
EXTT0=
EXTT1=
EXTT2=
EXTT3=
EXTT4=
EXTT5=
EXTT6=
EXTT7=
EXTT8=
EXTT9=
EXTT10=
EXTT11=
PLAYORDER=
